# Blender 5.0.1
# www.blender.org
mtllib Bomb.mtl
o Cube
v -1.222220 -3.122031 1.221557
v -1.033255 3.220126 1.032728
v -1.222220 -3.122031 -1.222884
v -1.033255 3.220127 -1.033781
v 1.222220 -3.122031 1.221557
v 1.033255 3.220127 1.032728
v 1.222220 -3.122031 -1.222883
v 1.033255 3.220127 -1.033781
v -1.301529 -3.220126 -0.003214
v -1.335874 3.220127 -0.003059
v 1.301528 -3.220127 -0.003214
v 1.335874 3.220127 -0.003059
v -0.000000 -3.220126 -1.301650
v -0.000000 3.220127 -1.335547
v -0.000000 -3.220127 1.301408
v -0.000000 3.220127 1.336201
v 0.164443 6.476998 -0.158970
v 0.000000 -3.416318 -0.002411
v -0.206074 3.416318 -0.001482
v -0.143980 3.416318 -0.145090
v 0.000000 3.416318 -0.207002
v 0.143980 3.416318 -0.145090
v 0.206074 3.416318 -0.001482
v 0.143980 3.416318 0.142870
v 0.000000 3.416318 0.205146
v -0.143980 3.416318 0.142870
v 0.121849 4.136437 -0.261353
v 0.194799 6.492878 -0.238200
v 0.265186 6.529697 -0.272357
v 0.335572 6.566517 -0.238199
v 0.365927 6.582396 -0.158970
v 0.335572 6.566516 -0.079330
v 0.265186 6.529697 -0.044971
v 0.194799 6.492878 -0.079330
v 0.265186 6.529697 -0.158923
v 0.677077 5.159951 0.021335
v 0.543881 5.181372 -0.040128
v -0.019753 4.188828 -0.327326
v 0.410685 5.202794 0.021335
v -0.161356 4.241220 -0.261353
v -0.222425 4.263816 -0.108330
v 0.353241 5.212031 0.163896
v 0.734521 5.150713 0.163896
v 0.182919 4.113842 -0.108330
v -0.019753 4.188829 0.111847
v 0.543881 5.181372 0.369020
v 0.410685 5.202793 0.307197
v -0.161356 4.241221 0.045488
v 0.121849 4.136437 0.045488
v 0.677077 5.159951 0.307197
v 0.593085 5.855742 -0.089642
v 0.352082 5.784920 0.034868
v 0.493959 5.826612 0.214019
v 0.593085 5.855742 0.160024
v 0.493959 5.826612 -0.143322
v 0.394833 5.797483 -0.089642
v 0.635835 5.868306 0.034868
v 0.394833 5.797483 0.160024
v 0.416730 4.675088 -0.119859
v 0.275144 4.719329 -0.184478
v 0.133559 4.763572 -0.119859
v 0.072497 4.782653 0.030026
v 0.477792 4.656007 0.030026
v 0.275145 4.719330 0.245686
v 0.133559 4.763572 0.180688
v 0.416730 4.675087 0.180688
v -2.407401 -1.688971 2.407601
v -2.407401 1.688971 2.407602
v -2.407401 1.688972 -2.407201
v -2.407401 -1.688972 -2.407201
v 2.407401 1.688972 -2.407201
v 2.407401 -1.688972 -2.407201
v 2.407401 1.688972 2.407601
v 2.407401 -1.688972 2.407601
v 3.340976 1.688972 -0.006425
v 3.340976 -1.688971 -0.006425
v -3.340976 1.688972 -0.006425
v -3.340976 -1.688971 -0.006425
v -0.000000 1.688972 3.343384
v -0.000000 -1.688971 3.343384
v -0.000000 1.688972 -3.338567
v -0.000000 -1.688971 -3.338568
v -1.268190 -3.203323 0.662541
v -1.763412 2.734446 1.763281
v -1.272341 3.220127 -0.580808
v -1.784296 -2.721729 -1.784453
v -0.664729 -3.203323 -1.268397
v 0.578698 3.220127 -1.272123
v 1.784296 -2.721729 -1.784453
v 1.268190 -3.203323 -0.666916
v 1.272341 3.220127 0.576588
v 1.784296 -2.721729 1.784139
v 0.664729 -3.203323 1.267983
v -0.578698 3.220127 1.272558
v -1.268190 -3.203323 -0.666916
v -1.272341 3.220127 0.576588
v 1.268190 -3.203323 0.662541
v 1.272341 3.220127 -0.580808
v 0.513647 3.391794 0.512800
v -0.537691 -3.391794 -0.002511
v 2.383752 -2.734445 -0.004819
v -2.383752 -2.734445 -0.004819
v 0.664729 -3.203323 -1.268397
v -0.578698 3.220127 -1.272123
v -0.664729 -3.203323 1.267983
v 0.578698 3.220127 1.272558
v 0.645021 3.391794 -0.002028
v 0.537691 -3.391794 -0.002511
v 0.000000 -3.391794 -0.539364
v 0.000000 3.391794 -0.645445
v -0.513647 3.391794 -0.514493
v -0.000000 -3.391794 0.536019
v -0.000000 -2.734445 2.385122
v -0.000000 -2.734445 -2.382382
v -0.189393 3.416318 -0.078785
v 0.077437 3.416318 -0.190360
v 0.189393 3.416318 0.076089
v -0.077437 3.416318 0.188426
v -0.189393 3.416318 0.076089
v 0.189393 3.416318 -0.078785
v 0.473313 6.215361 -0.166467
v -0.077437 3.416318 -0.190360
v 0.077437 3.416318 0.188426
v -0.040230 3.823836 -0.291836
v -0.182753 3.855997 -0.227386
v 0.270073 6.122897 -0.062142
v 0.513647 3.391794 -0.514493
v -0.513647 3.391794 0.512800
v -0.645021 3.391794 -0.002028
v 0.000000 3.391794 0.644598
v 0.172598 6.481265 -0.201619
v 0.303041 6.549500 -0.263176
v 0.357773 6.578130 -0.116173
v 0.227330 6.509895 -0.054196
v 0.172598 6.481264 -0.116173
v 0.357773 6.578130 -0.201619
v 0.315556 6.556046 -0.158937
v 0.227330 6.509895 -0.263176
v 0.303041 6.549500 -0.054196
v 0.214815 6.503348 -0.158937
v 0.265186 6.529697 -0.215688
v 0.265185 6.529697 -0.101995
v 0.163758 3.777807 -0.077894
v 0.389719 6.177330 0.087964
v -0.182753 3.855997 0.072374
v 0.473312 6.215361 0.042723
v 0.102292 3.791677 -0.227386
v 0.579647 4.901827 -0.024985
v 0.555549 5.484775 -0.071221
v 0.100762 4.481043 -0.280574
v 0.437900 5.480015 -0.012422
v -0.040752 4.534171 -0.214771
v -0.244219 3.869867 -0.077894
v 0.238707 4.988941 0.121630
v 0.723938 5.491584 0.123960
v 0.303308 4.405004 -0.062140
v -0.040230 3.823837 0.137202
v 0.439416 4.937658 0.332587
v 0.437900 5.480015 0.261050
v -0.040752 4.534171 0.091283
v 0.102292 3.791677 0.072374
v 0.579647 4.901827 0.269006
v 0.166513 4.119912 -0.025672
v 0.719089 5.153194 0.240902
v -0.206020 4.257746 -0.025672
v 0.368673 5.209549 0.240902
v 0.056405 4.160651 0.094031
v 0.615518 5.169851 0.352422
v 0.056405 4.160651 -0.309592
v 0.615518 5.169852 -0.023606
v -0.206020 4.257746 -0.190701
v 0.368673 5.209549 0.087156
v -0.095912 4.217007 -0.309592
v 0.472244 5.192893 -0.023606
v 0.166513 4.119912 -0.190701
v 0.719089 5.153194 0.087156
v -0.095912 4.217007 0.094031
v 0.472244 5.192893 0.352422
v 0.673199 5.489532 -0.012422
v 0.387160 5.477963 0.123960
v 0.555549 5.484774 0.320193
v 0.673199 5.489532 0.261050
v 0.389719 6.177330 -0.211444
v 0.306125 6.139299 -0.166467
v 0.509364 6.231763 -0.062142
v 0.306125 6.139299 0.042723
v 0.624351 5.864931 0.102124
v 0.363567 5.788294 0.102124
v 0.547272 5.842279 0.199522
v 0.547272 5.842279 -0.128892
v 0.363567 5.788295 -0.032155
v 0.440646 5.810946 -0.128892
v 0.624351 5.864931 -0.032155
v 0.440646 5.810946 0.199522
v 0.242277 4.427916 -0.214771
v 0.439416 4.937658 -0.088194
v 0.299185 4.973487 -0.024985
v -0.101784 4.557084 -0.062140
v 0.640124 4.886375 0.121630
v 0.100762 4.481044 0.157473
v 0.299185 4.973487 0.269006
v 0.242277 4.427916 0.091283
v 0.198995 4.743124 0.228236
v 0.461388 4.661133 -0.050656
v 0.198995 4.743124 -0.167109
v 0.088901 4.777526 -0.050656
v 0.351294 4.695535 -0.167109
v 0.351294 4.695535 0.228236
v 0.088901 4.777526 0.110988
v 0.461388 4.661133 0.110988
v -1.784296 -2.721730 1.784139
v -2.643511 -0.000000 2.643832
v -1.763413 2.734445 -1.763544
v -2.643511 -0.000000 -2.643191
v 1.763412 2.734445 -1.763544
v 2.643511 -0.000000 -2.643190
v 1.763412 2.734445 1.763281
v 2.643511 -0.000000 2.643832
v 2.388045 2.734445 -0.004800
v 3.692123 -0.000000 -0.007027
v -2.388046 2.734445 -0.004800
v -3.692123 0.000000 -0.007027
v -0.000000 2.734445 2.389471
v -0.000000 -0.000000 3.694892
v -0.000000 2.734445 -2.386620
v -0.000000 -0.000000 -3.689353
v -1.311598 -1.688971 -3.101050
v -1.311598 1.688971 -3.101050
v 1.311597 -1.688971 3.105314
v 1.311597 1.688971 3.105315
v -3.103183 -1.688971 1.307657
v -3.103183 1.688971 1.307657
v 3.103183 -1.688971 -1.315538
v 3.103183 1.688971 -1.315538
v -1.311598 -1.688971 3.105314
v -1.311597 1.688971 3.105314
v 3.103182 -1.688971 1.307657
v 3.103182 1.688971 1.307657
v 1.311597 -1.688971 -3.101050
v 1.311597 1.688971 -3.101050
v -3.103183 -1.688971 -1.315538
v -3.103182 1.688971 -1.315538
v -2.237123 2.734446 -0.973305
v 0.970256 2.734446 -2.235891
v 2.237122 2.734446 0.967207
v -0.970256 2.734445 2.238353
v 0.548892 -3.368179 0.547148
v -0.620927 3.391794 0.289156
v 0.620927 3.391794 -0.292331
v 0.548892 -3.368178 -0.550635
v 2.237123 2.734446 -0.973305
v -2.237123 2.734445 0.967206
v -0.548892 -3.368178 -0.550635
v 0.620927 3.391794 0.289156
v -0.290743 3.391794 -0.621411
v -0.548892 -3.368178 0.547148
v 0.970256 2.734446 2.238353
v -0.970256 2.734446 -2.235892
v 0.344759 6.156876 0.075818
v 0.499679 6.227357 -0.118299
v 0.344759 6.156876 -0.199354
v 0.279758 6.127303 -0.118299
v -0.620927 3.391794 -0.292331
v -0.290743 3.391794 0.620442
v 0.290743 3.391794 -0.621411
v 0.290743 3.391794 0.620442
v 0.218596 6.505326 -0.106279
v 0.218596 6.505326 -0.211437
v 0.311775 6.554069 -0.211437
v 0.311775 6.554068 -0.106279
v 0.434678 6.197784 -0.199354
v 0.434678 6.197785 0.075818
v 0.279758 6.127304 -0.005790
v 0.499679 6.227356 -0.005790
v 0.147246 3.781533 0.002856
v 0.623878 4.890526 0.200826
v -0.227707 3.866140 0.002856
v 0.254954 4.984789 0.200826
v 0.036423 3.806540 0.119797
v 0.514836 4.918387 0.315517
v 0.036423 3.806540 -0.274512
v 0.514836 4.918387 -0.071204
v -0.227707 3.866140 -0.158364
v 0.254954 4.984789 0.042709
v -0.116883 3.841133 -0.274512
v 0.363995 4.956928 -0.071204
v 0.147246 3.781533 -0.158364
v 0.623878 4.890526 0.042709
v -0.116883 3.841133 0.119797
v 0.363995 4.956928 0.315517
v 0.710307 5.491034 0.197629
v 0.400791 5.478514 0.197629
v 0.618825 5.487334 0.304315
v 0.618825 5.487334 -0.055416
v 0.400791 5.478514 0.050547
v 0.492273 5.482214 -0.055416
v 0.710307 5.491034 0.050547
v 0.492273 5.482215 0.304315
v 0.024651 4.509617 0.139702
v 0.286913 4.411159 -0.144300
v 0.024651 4.509617 -0.262886
v -0.085388 4.550929 -0.144300
v 0.176873 4.452469 -0.262886
v 0.176874 4.452469 0.139702
v -0.085388 4.550928 0.020306
v 0.286913 4.411158 0.020306
v -0.981124 -2.731266 -2.237533
v -1.436462 -0.000000 -3.419321
v 0.981124 -2.731266 2.239894
v 1.436462 -0.000000 3.424248
v -2.238714 -2.731266 0.978061
v -3.421785 0.000000 1.432191
v 2.238714 -2.731266 -0.984187
v 3.421784 -0.000000 -1.440733
v -0.981124 -2.731266 2.239894
v -1.436462 0.000000 3.424248
v 2.238714 -2.731266 0.978061
v 3.421784 -0.000000 1.432191
v 0.981124 -2.731266 -2.237533
v 1.436462 -0.000000 -3.419321
v -2.238714 -2.731266 -0.984187
v -3.421785 -0.000000 -1.440734
vn -0.8986 0.4387 -0.0003
vn -0.6085 0.7935 -0.0001
vn -0.5750 0.7902 -0.2119
vn -0.8389 0.4349 -0.3271
vn -0.3412 0.9400 -0.0001
vn -0.3250 0.9398 -0.1058
vn -0.2413 0.9398 -0.2420
vn -0.4355 0.7871 -0.4369
vn -0.6371 0.4312 -0.6389
vn -0.0000 0.4384 -0.8988
vn -0.0000 0.7933 -0.6089
vn 0.2110 0.7900 -0.5757
vn 0.3257 0.4346 -0.8396
vn -0.0000 0.9399 -0.3415
vn 0.1054 0.9397 -0.3255
vn 0.2413 0.9398 -0.2420
vn 0.4355 0.7871 -0.4369
vn 0.6371 0.4312 -0.6389
vn 0.8986 0.4387 -0.0003
vn 0.6085 0.7935 -0.0001
vn 0.5756 0.7901 0.2108
vn 0.8397 0.4348 0.3254
vn 0.3412 0.9400 -0.0001
vn 0.3253 0.9397 0.1053
vn 0.2419 0.9399 0.2412
vn 0.4367 0.7872 0.4354
vn 0.6389 0.4313 0.6370
vn -0.0000 0.4390 0.8985
vn -0.0000 0.7938 0.6082
vn -0.2117 0.7904 0.5749
vn -0.3268 0.4351 0.8390
vn -0.0000 0.9401 0.3409
vn -0.1057 0.9398 0.3248
vn -0.2419 0.9399 0.2412
vn -0.4367 0.7872 0.4354
vn -0.6389 0.4313 0.6370
vn -0.0000 -1.0000 -0.0001
vn 0.1303 -0.9915 -0.0000
vn 0.1175 -0.9861 0.1172
vn -0.0000 -0.9915 0.1300
vn 0.3213 -0.9470 -0.0001
vn 0.3037 -0.9458 0.1155
vn 0.2683 -0.9255 0.2674
vn 0.1159 -0.9459 0.3031
vn -0.0000 -0.9471 0.3208
vn -0.3253 0.9397 0.1053
vn -0.1495 0.9879 0.0420
vn -0.1544 0.9880 -0.0000
vn -0.1105 0.9878 0.1101
vn -0.0338 0.9989 0.0337
vn -0.0497 0.9987 0.0144
vn -0.0548 0.9985 -0.0000
vn 0.3250 0.9398 -0.1058
vn 0.1494 0.9879 -0.0422
vn 0.1544 0.9880 -0.0000
vn 0.1102 0.9877 -0.1106
vn 0.0337 0.9989 -0.0338
vn 0.0496 0.9987 -0.0145
vn 0.0548 0.9985 -0.0000
vn -0.0000 -0.9468 -0.3218
vn 0.1156 -0.9456 -0.3040
vn 0.1174 -0.9861 -0.1177
vn -0.0000 -0.9914 -0.1305
vn 0.2677 -0.9253 -0.2686
vn 0.3034 -0.9458 -0.1160
vn 0.5750 0.7902 -0.2119
vn 0.8389 0.4349 -0.3271
vn -0.5756 0.7901 0.2108
vn -0.8397 0.4348 0.3254
vn -0.2677 -0.9253 -0.2686
vn -0.1156 -0.9456 -0.3040
vn -0.1174 -0.9861 -0.1177
vn -0.3034 -0.9458 -0.1160
vn -0.1303 -0.9915 -0.0000
vn -0.3213 -0.9470 -0.0001
vn 0.1495 0.9879 0.0420
vn 0.1105 0.9878 0.1101
vn 0.0497 0.9987 0.0144
vn 0.0338 0.9989 0.0337
vn -0.1054 0.9397 -0.3255
vn -0.0420 0.9879 -0.1496
vn -0.0000 0.9880 -0.1545
vn -0.1102 0.9877 -0.1106
vn -0.0337 0.9989 -0.0338
vn -0.0144 0.9987 -0.0497
vn -0.0000 0.9985 -0.0548
vn -0.1175 -0.9861 0.1172
vn -0.3037 -0.9458 0.1155
vn -0.1159 -0.9459 0.3031
vn -0.2683 -0.9255 0.2674
vn 0.2117 0.7904 0.5749
vn 0.3268 0.4351 0.8390
vn 0.1057 0.9398 0.3248
vn -0.2110 0.7900 -0.5757
vn -0.3257 0.4346 -0.8396
vn -0.7743 0.0565 0.6302
vn -0.4849 0.1832 0.8552
vn -0.5060 0.1533 0.8488
vn -0.7726 -0.0023 0.6349
vn -0.0686 0.2989 0.9518
vn -0.1232 0.3052 0.9443
vn -0.3449 0.7010 0.6242
vn -0.5879 0.5883 0.5553
vn -0.7675 0.4857 0.4185
vn 0.9602 0.2793 0.0009
vn 0.9212 0.1858 -0.3420
vn 0.8997 0.2531 -0.3556
vn 0.9347 0.3555 0.0016
vn 0.7625 0.0744 -0.6427
vn 0.7418 0.1316 -0.6575
vn 0.2444 0.7922 -0.5591
vn 0.3742 0.8726 -0.3138
vn 0.4031 0.9148 -0.0245
vn 0.0561 -0.1846 -0.9812
vn -0.3798 -0.2711 -0.8844
vn -0.3434 -0.2779 -0.8971
vn 0.0712 -0.1589 -0.9847
vn -0.7020 -0.2907 -0.6501
vn -0.6639 -0.3336 -0.6693
vn -0.7773 0.3425 -0.5278
vn -0.5634 0.4177 -0.7128
vn -0.2680 0.5378 -0.7993
vn -0.9022 -0.2558 -0.3474
vn -0.8733 -0.3275 -0.3608
vn -0.9846 -0.1750 -0.0014
vn -0.9656 -0.2599 -0.0013
vn -0.9445 0.3277 -0.0228
vn -0.9046 0.3122 -0.2903
vn -0.1494 0.9879 -0.0422
vn -0.0496 0.9987 -0.0145
vn -0.0422 0.9879 0.1493
vn -0.0000 0.9880 0.1542
vn -0.0000 0.9985 0.0547
vn -0.0145 0.9987 0.0496
vn 0.0420 0.9879 -0.1496
vn 0.0144 0.9987 -0.0497
vn 0.0422 0.9879 0.1493
vn 0.0145 0.9987 0.0496
vn -0.4635 0.8861 -0.0000
vn -0.8894 0.3964 0.2275
vn 0.0254 0.6778 -0.7348
vn 0.3104 0.9166 0.2520
vn -0.0854 0.8059 0.5858
vn 0.1393 0.8782 0.4576
vn 0.4752 -0.0539 -0.8782
vn 0.4652 -0.0081 -0.8851
vn 0.3585 0.3653 0.8591
vn 0.2863 0.4074 0.8672
vn 0.6763 0.3751 0.6340
vn 0.6132 0.4418 0.6548
vn -0.9386 -0.0646 0.3390
vn -0.9266 -0.1436 0.3476
vn 0.8750 0.3442 0.3404
vn 0.8332 0.4218 0.3577
vn 0.7079 0.2046 0.6760
vn 0.9047 0.1798 0.3863
vn 0.9242 0.0816 0.3730
vn 0.7236 0.1114 0.6811
vn 0.9925 0.1196 0.0246
vn 0.9995 0.0288 -0.0093
vn 0.9756 -0.2191 -0.0162
vn 0.8981 -0.2144 0.3841
vn 0.6860 -0.1787 0.7053
vn 0.4942 -0.5921 0.6366
vn 0.6954 -0.6242 0.3560
vn 0.7827 -0.5000 0.3707
vn 0.5824 -0.4741 0.6603
vn 0.8201 -0.5722 -0.0052
vn 0.8872 -0.4614 0.0074
vn 0.9874 -0.1573 0.0163
vn 0.9115 -0.1522 0.3821
vn 0.7163 -0.1252 0.6865
vn -0.9964 -0.0813 0.0222
vn -0.9139 -0.0124 0.4058
vn -0.9262 0.0298 0.3760
vn -0.9999 -0.0143 -0.0052
vn -0.6979 0.0534 0.7142
vn -0.7208 0.0661 0.6900
vn -0.7199 0.1356 0.6807
vn -0.9092 0.1932 0.3689
vn -0.9744 0.2245 -0.0149
vn -0.7862 0.6179 0.0038
vn -0.7971 0.4671 0.3826
vn -0.8236 0.4084 0.3935
vn -0.8403 0.5420 0.0131
vn -0.6729 0.2392 0.7000
vn -0.6733 0.2128 0.7081
vn -0.6891 0.1926 0.6986
vn -0.8814 0.2621 0.3929
vn -0.9550 0.2959 0.0196
vn 0.0307 0.1690 0.9851
vn 0.4157 0.2004 0.8872
vn 0.4151 0.1224 0.9015
vn 0.0083 0.1162 0.9932
vn 0.3658 -0.1166 0.9234
vn -0.0385 -0.0313 0.9988
vn -0.0968 -0.2931 0.9512
vn 0.2310 -0.4867 0.8425
vn 0.3033 -0.3877 0.8705
vn -0.0487 -0.2291 0.9722
vn 0.4130 -0.0736 0.9078
vn 0.0159 0.0061 0.9999
vn 0.7277 -0.0677 -0.6826
vn 0.4036 -0.1507 -0.9024
vn 0.3730 -0.1373 -0.9176
vn 0.6995 -0.0965 -0.7081
vn -0.0085 -0.2035 -0.9790
vn -0.0341 -0.1509 -0.9880
vn -0.0114 0.0234 -0.9997
vn 0.3758 -0.0662 -0.9243
vn 0.6834 -0.1385 -0.7168
vn 0.6806 -0.2006 -0.7047
vn 0.4300 0.0605 -0.9008
vn 0.4348 0.0250 -0.9002
vn 0.7023 -0.1840 -0.6877
vn 0.1047 0.3199 -0.9416
vn 0.0825 0.2517 -0.9643
vn 0.0408 0.0343 -0.9986
vn 0.4429 -0.0491 -0.8952
vn 0.7392 -0.1050 -0.6653
vn -0.7172 -0.1893 -0.6706
vn -0.9205 -0.1438 -0.3633
vn -0.9231 -0.0609 -0.3797
vn -0.7251 -0.1026 -0.6810
vn -0.8922 0.2179 -0.3955
vn -0.6897 0.1779 -0.7019
vn -0.4637 0.6278 -0.6252
vn -0.6586 0.6662 -0.3498
vn -0.7306 0.5845 -0.3529
vn -0.5365 0.5451 -0.6443
vn -0.8883 0.2787 -0.3651
vn -0.6927 0.2193 -0.6871
vn -0.4109 -0.2135 -0.8863
vn -0.4260 -0.1354 -0.8945
vn -0.3909 0.1112 -0.9137
vn -0.2120 0.5162 -0.8298
vn -0.2667 0.4362 -0.8594
vn -0.3771 0.1330 -0.9166
vn 0.9323 0.0289 -0.3605
vn 0.9175 -0.0372 -0.3959
vn 0.8926 -0.1911 -0.4085
vn 0.8184 -0.4224 -0.3897
vn 0.8591 -0.3512 -0.3723
vn 0.9244 -0.1403 -0.3547
vn -0.3733 0.1155 0.9205
vn -0.4024 0.0954 0.9105
vn -0.4261 0.0591 0.9027
vn -0.4272 -0.0298 0.9036
vn -0.4046 -0.0122 0.9144
vn -0.3857 0.1026 0.9169
vn 0.9185 0.1808 0.3516
vn 0.7299 0.2140 0.6492
vn 0.9915 0.1301 0.0051
vn -0.9294 0.0832 0.3597
vn -0.9999 0.0082 0.0062
vn -0.7388 0.1436 0.6584
vn 0.4214 0.2306 0.8771
vn -0.0006 0.2247 0.9744
vn 0.4565 -0.0872 -0.8854
vn 0.7593 -0.0106 -0.6507
vn 0.0291 -0.1493 -0.9884
vn -0.9324 -0.0714 -0.3544
vn -0.7357 -0.1346 -0.6638
vn -0.4115 -0.1664 -0.8961
vn 0.9361 0.0637 -0.3459
vn -0.4270 0.1921 0.8836
vn -0.4330 0.0155 0.9012
vn -0.6908 0.2207 0.6885
vn -0.0885 -0.2005 0.9757
vn 0.8439 -0.3536 -0.4035
vn 0.8789 -0.4769 -0.0112
vn 0.6778 -0.1790 -0.7131
vn -0.2748 0.3914 -0.8782
vn 0.0670 0.2276 -0.9714
vn -0.5520 0.4926 -0.6727
vn -0.7562 0.5329 -0.3798
vn -0.8651 0.5015 -0.0085
vn 0.4104 0.0225 -0.9116
vn 0.2672 -0.3761 0.8872
vn 0.5569 -0.4805 0.6775
vn -0.8411 0.3900 0.3748
vn 0.7689 -0.5178 0.3751
vn -0.4409 -0.7811 -0.4422
vn -0.2051 -0.7891 -0.5790
vn -0.6378 -0.4289 -0.6397
vn -0.3244 -0.4335 -0.8408
vn -0.0000 -0.4387 -0.8986
vn -0.0000 -0.7968 -0.6042
vn -0.7061 -0.0000 -0.7081
vn -0.3666 -0.0000 -0.9304
vn -0.0000 -0.0000 -1.0000
vn 0.4420 -0.7813 0.4407
vn 0.2058 -0.7896 0.5780
vn 0.6396 -0.4290 0.6378
vn 0.3255 -0.4340 0.8401
vn -0.0000 -0.4393 0.8983
vn -0.0000 -0.7975 0.6034
vn 0.7081 -0.0000 0.7061
vn 0.3679 -0.0000 0.9299
vn -0.0000 -0.0000 1.0000
vn -0.4420 -0.7813 0.4407
vn -0.5787 -0.7893 0.2049
vn -0.6396 -0.4290 0.6378
vn -0.8408 -0.4337 0.3241
vn -0.8985 -0.4390 -0.0003
vn -0.6038 -0.7971 -0.0001
vn -0.7081 -0.0000 0.7061
vn -0.9305 -0.0000 0.3663
vn -1.0000 -0.0000 -0.0004
vn 0.4409 -0.7811 -0.4422
vn 0.5783 -0.7894 -0.2060
vn 0.6378 -0.4289 -0.6397
vn 0.8401 -0.4338 -0.3258
vn 0.8985 -0.4390 -0.0003
vn 0.6038 -0.7971 -0.0001
vn 0.7061 -0.0000 -0.7081
vn 0.9297 -0.0000 -0.3682
vn 1.0000 -0.0000 -0.0004
vn -0.2058 -0.7896 0.5780
vn -0.3255 -0.4340 0.8401
vn -0.3679 -0.0000 0.9299
vn 0.5787 -0.7893 0.2049
vn 0.8408 -0.4337 0.3241
vn 0.9305 -0.0000 0.3663
vn 0.2051 -0.7891 -0.5790
vn 0.3244 -0.4335 -0.8408
vn 0.3666 -0.0000 -0.9304
vn -0.5783 -0.7894 -0.2060
vn -0.8401 -0.4338 -0.3258
vn -0.9297 -0.0000 -0.3682
vt 0.541667 0.125301
vt 0.581597 0.125301
vt 0.581597 0.187717
vt 0.541667 0.187717
vt 0.611111 0.125301
vt 0.611111 0.187717
vt 0.611111 0.250075
vt 0.581597 0.250075
vt 0.541667 0.250075
vt 0.541667 0.375000
vt 0.581597 0.375000
vt 0.581597 0.437491
vt 0.541667 0.437491
vt 0.611111 0.375000
vt 0.611111 0.437491
vt 0.611111 0.499925
vt 0.581597 0.499925
vt 0.541667 0.499925
vt 0.541667 0.624699
vt 0.581597 0.624699
vt 0.581597 0.687284
vt 0.541667 0.687283
vt 0.611111 0.624699
vt 0.611111 0.687283
vt 0.611111 0.749925
vt 0.581597 0.749925
vt 0.541667 0.749925
vt 0.541667 0.875000
vt 0.581597 0.875000
vt 0.581887 0.937500
vt 0.541667 0.937500
vt 0.611111 0.875000
vt 0.612269 0.937500
vt 0.625000 1.000000
vt 0.583333 1.000000
vt 0.541667 1.000000
vt 0.250000 0.624699
vt 0.311632 0.624699
vt 0.311777 0.687293
vt 0.250000 0.687293
vt 0.368056 0.624699
vt 0.368634 0.687291
vt 0.375000 0.750000
vt 0.312500 0.750000
vt 0.250000 0.750000
vt 0.612269 0.062707
vt 0.623553 0.062707
vt 0.623264 0.125301
vt 0.625000 0.000000
vt 0.625000 0.000000
vt 0.625000 0.062707
vt 0.625000 0.125301
vt 0.611111 0.562283
vt 0.623264 0.562283
vt 0.623264 0.624699
vt 0.623264 0.499925
vt 0.625000 0.499925
vt 0.625000 0.562283
vt 0.625000 0.624699
vt 0.250000 0.500000
vt 0.312500 0.500000
vt 0.311777 0.562293
vt 0.250000 0.562293
vt 0.375000 0.500000
vt 0.368634 0.562291
vt 0.581597 0.562283
vt 0.541667 0.562284
vt 0.611111 0.562284
vt 0.541667 0.000000
vt 0.583333 0.000000
vt 0.581887 0.062707
vt 0.541667 0.062707
vt 0.612269 0.062707
vt 0.581597 0.125301
vt 0.125000 0.500000
vt 0.187500 0.500000
vt 0.187500 0.562290
vt 0.125000 0.562274
vt 0.187500 0.624686
vt 0.125000 0.624548
vt 0.623264 0.687283
vt 0.623264 0.749925
vt 0.625000 0.687283
vt 0.625000 0.749925
vt 0.611111 0.375000
vt 0.611111 0.312509
vt 0.623264 0.312509
vt 0.623264 0.375000
vt 0.623264 0.250075
vt 0.625000 0.250075
vt 0.625000 0.312509
vt 0.625000 0.375000
vt 0.187500 0.687290
vt 0.125000 0.687274
vt 0.187500 0.750000
vt 0.125000 0.750000
vt 0.581597 0.812491
vt 0.541667 0.812491
vt 0.611111 0.812491
vt 0.581597 0.875000
vt 0.581597 0.312509
vt 0.541667 0.312509
vt 0.625000 0.937500
vt 0.625000 1.000000
vt 0.625000 0.875000
vt 0.625000 0.875000
vt 0.625000 0.875000
vt 0.625000 0.937500
vt 0.625000 0.624699
vt 0.625000 0.562285
vt 0.625000 0.499931
vt 0.625000 0.500000
vt 0.625000 0.562293
vt 0.625000 0.375000
vt 0.625000 0.312500
vt 0.625000 0.312506
vt 0.625000 0.375000
vt 0.625000 0.250000
vt 0.625000 0.250063
vt 0.625000 0.250000
vt 0.625000 0.312500
vt 0.625000 0.187726
vt 0.625000 0.187720
vt 0.625000 0.125452
vt 0.625000 0.125326
vt 0.625000 0.125452
vt 0.625000 0.187726
vt 0.623264 0.187717
vt 0.623264 0.125301
vt 0.625000 0.125301
vt 0.625000 0.187717
vt 0.612269 0.937500
vt 0.623553 0.937500
vt 0.623264 0.875000
vt 0.611111 0.437491
vt 0.623264 0.437491
vt 0.625000 0.437491
vt 0.623264 0.812491
vt 0.623264 0.875000
vt 0.625000 0.812491
vt 0.750000 0.624699
vt 0.812500 0.624686
vt 0.812500 0.687290
vt 0.750000 0.687293
vt 0.875000 0.624548
vt 0.875000 0.687274
vt 0.875000 0.750000
vt 0.812500 0.750000
vt 0.750000 0.750000
vt 0.750000 0.500000
vt 0.812500 0.500000
vt 0.812500 0.562290
vt 0.750000 0.562293
vt 0.875000 0.500000
vt 0.875000 0.562274
vt 0.625000 0.500000
vt 0.687500 0.500000
vt 0.687500 0.562293
vt 0.687500 0.624699
vt 0.687500 0.687293
vt 0.625000 0.687293
vt 0.687500 0.750000
vt 0.625000 0.750000
vt 0.625000 0.437491
vt 0.625000 0.437492
vt 0.625000 0.437500
vt 0.625000 0.812492
vt 0.625000 0.749931
vt 0.625000 0.750000
vt 0.625000 0.812500
vt 0.625000 0.062726
vt 0.625000 0.062713
vt 0.625000 0.062726
vt 0.625000 0.687283
vt 0.625000 0.687285
vt 0.625000 0.749925
vt 0.625000 0.687282
vt 0.625000 0.749931
vt 0.625000 0.624686
vt 0.625000 0.624548
vt 0.625000 0.687274
vt 0.625000 0.687274
vt 0.625000 0.687290
vt 0.625000 0.750000
vt 0.625000 0.624548
vt 0.625000 0.624686
vt 0.625000 0.687291
vt 0.625000 0.062707
vt 0.625000 0.062723
vt 0.625000 0.125452
vt 0.625000 0.125452
vt 0.625000 0.812491
vt 0.625000 0.812499
vt 0.625000 0.812500
vt 0.625000 0.375000
vt 0.625000 0.500000
vt 0.625000 0.437492
vt 0.625000 0.499931
vt 0.625000 0.375000
vt 0.625000 0.187717
vt 0.625000 0.250075
vt 0.625000 0.125301
vt 0.625000 0.250000
vt 0.625000 0.187734
vt 0.625000 0.250069
vt 0.625000 0.187732
vt 0.625000 0.250075
vt 0.625000 0.312509
vt 0.625000 0.312509
vt 0.625000 0.312500
vt 0.625000 0.312508
vt 0.625000 0.562282
vt 0.625000 0.562274
vt 0.625000 0.562274
vt 0.625000 0.562282
vt 0.625000 0.687285
vt 0.625000 0.812492
vt 0.625000 0.187721
vt 0.625000 0.250069
vt 0.625000 0.312508
vt 0.625000 0.562283
vt 0.625000 0.624699
vt 0.625000 0.499925
vt 0.625000 0.499925
vt 0.625000 0.562280
vt 0.625000 0.624674
vt 0.625000 0.499937
vt 0.625000 0.187718
vt 0.625000 0.125314
vt 0.625000 0.437494
vt 0.625000 0.062710
vt 0.625000 0.687287
vt 0.375000 0.250000
vt 0.416667 0.250069
vt 0.416667 0.312508
vt 0.375000 0.312500
vt 0.458333 0.250075
vt 0.458333 0.312509
vt 0.458333 0.375000
vt 0.416667 0.375000
vt 0.375000 0.375000
vt 0.458333 0.250075
vt 0.500000 0.250075
vt 0.500000 0.312509
vt 0.458333 0.312509
vt 0.500000 0.375000
vt 0.458333 0.375000
vt 0.416522 0.749931
vt 0.416667 0.812492
vt 0.375000 0.812500
vt 0.458333 0.749925
vt 0.458333 0.812491
vt 0.458333 0.875000
vt 0.416667 0.875000
vt 0.375000 0.875000
vt 0.458333 0.749925
vt 0.500000 0.749925
vt 0.500000 0.812491
vt 0.458333 0.812491
vt 0.500000 0.875000
vt 0.458333 0.875000
vt 0.375000 0.000000
vt 0.416667 0.000000
vt 0.416667 0.062710
vt 0.375000 0.062726
vt 0.458333 0.000000
vt 0.458333 0.062707
vt 0.458333 0.125301
vt 0.416667 0.125314
vt 0.375000 0.125452
vt 0.500000 0.000000
vt 0.500000 0.062707
vt 0.500000 0.125301
vt 0.416522 0.499931
vt 0.415943 0.562285
vt 0.458333 0.499925
vt 0.458333 0.562283
vt 0.458333 0.624699
vt 0.415799 0.624699
vt 0.458333 0.499925
vt 0.500000 0.499925
vt 0.500000 0.562283
vt 0.458333 0.562284
vt 0.500000 0.624699
vt 0.458333 0.624699
vt 0.416667 0.937500
vt 0.375000 0.937500
vt 0.458333 0.937500
vt 0.458333 1.000000
vt 0.416667 1.000000
vt 0.375000 1.000000
vt 0.500000 0.937500
vt 0.500000 1.000000
vt 0.415943 0.687285
vt 0.458333 0.687283
vt 0.500000 0.687284
vt 0.458333 0.687283
vt 0.416667 0.437492
vt 0.375000 0.437500
vt 0.458333 0.437491
vt 0.500000 0.437491
vt 0.416667 0.187718
vt 0.375000 0.187726
vt 0.458333 0.187717
vt 0.458333 0.125301
vt 0.500000 0.125301
vt 0.500000 0.187717
vt 0.458333 0.187717
s 1
usemtl Material
f 77/1/1 221/2/2 243/3/3 242/4/4
f 221/2/2 10/5/5 85/6/6 243/3/3
f 243/3/3 85/6/6 4/7/7 213/8/8
f 242/4/4 243/3/3 213/8/8 69/9/9
f 81/10/10 225/11/11 244/12/12 240/13/13
f 225/11/11 14/14/14 88/15/15 244/12/12
f 244/12/12 88/15/15 8/16/16 215/17/17
f 240/13/13 244/12/12 215/17/17 71/18/18
f 75/19/19 219/20/20 245/21/21 238/22/22
f 219/20/20 12/23/23 91/24/24 245/21/21
f 245/21/21 91/24/24 6/25/25 217/26/26
f 238/22/22 245/21/21 217/26/26 73/27/27
f 79/28/28 223/29/29 246/30/30 236/31/31
f 223/29/29 16/32/32 94/33/33 246/30/30
f 246/30/30 94/33/33 2/34/34 84/35/35
f 236/31/31 246/30/30 84/35/35 68/36/36
f 18/37/37 108/38/38 247/39/39 112/40/40
f 108/38/38 11/41/41 97/42/42 247/39/39
f 247/39/39 97/42/42 5/43/43 93/44/44
f 112/40/40 247/39/39 93/44/44 15/45/45
f 10/5/5 96/46/46 248/47/47 129/48/48
f 96/46/46 2/49/34 128/50/49 248/47/47
f 248/47/47 128/50/49 26/50/50 119/51/51
f 129/48/48 248/47/47 119/51/51 19/52/52
f 12/23/23 98/53/53 249/54/54 107/55/55
f 98/53/53 8/16/16 127/56/56 249/54/54
f 249/54/54 127/56/56 22/57/57 120/58/58
f 107/55/55 249/54/54 120/58/58 23/59/59
f 13/60/60 103/61/61 250/62/62 109/63/63
f 103/61/61 7/64/64 90/65/65 250/62/62
f 250/62/62 90/65/65 11/41/41 108/38/38
f 109/63/63 250/62/62 108/38/38 18/37/37
f 71/18/18 215/17/17 251/66/66 234/67/67
f 215/17/17 8/16/16 98/68/53 251/66/66
f 251/66/66 98/68/53 12/23/23 219/20/20
f 234/67/67 251/66/66 219/20/20 75/19/19
f 68/69/36 84/70/35 252/71/68 232/72/69
f 84/70/35 2/49/34 96/73/46 252/71/68
f 252/71/68 96/73/46 10/5/5 221/74/2
f 232/72/69 252/71/68 221/74/2 77/1/1
f 3/75/70 87/76/71 253/77/72 95/78/73
f 87/76/71 13/60/60 109/63/63 253/77/72
f 253/77/72 109/63/63 18/37/37 100/79/74
f 95/78/73 253/77/72 100/79/74 9/80/75
f 6/25/25 91/24/24 254/81/76 99/82/77
f 91/24/24 12/23/23 107/55/55 254/81/76
f 254/81/76 107/55/55 23/59/59 117/83/78
f 99/82/77 254/81/76 117/83/78 24/84/79
f 14/85/14 104/86/80 255/87/81 110/88/82
f 104/86/80 4/7/7 111/89/83 255/87/81
f 255/87/81 111/89/83 20/90/84 122/91/85
f 110/88/82 255/87/81 122/91/85 21/92/86
f 9/80/75 100/79/74 256/93/87 83/94/88
f 100/79/74 18/37/37 112/40/40 256/93/87
f 256/93/87 112/40/40 15/45/45 105/95/89
f 83/94/88 256/93/87 105/95/89 1/96/90
f 73/27/27 217/26/26 257/97/91 230/98/92
f 217/26/26 6/25/25 106/99/93 257/97/91
f 257/97/91 106/99/93 16/32/32 223/100/29
f 230/98/92 257/97/91 223/100/29 79/28/28
f 69/9/9 213/8/8 258/101/94 228/102/95
f 213/8/8 4/7/7 104/86/80 258/101/94
f 258/101/94 104/86/80 14/14/14 225/11/11
f 228/102/95 258/101/94 225/11/11 81/10/10
f 4/7/7 85/6/6 263/128/129 111/89/83
f 85/6/6 10/5/5 129/129/48 263/128/129
f 263/128/129 129/129/48 19/130/52 115/131/130
f 111/89/83 263/128/129 115/131/130 20/90/84
f 2/34/34 94/132/33 264/133/131 128/104/49
f 94/132/33 16/32/32 130/134/132 264/133/131
f 264/133/131 130/134/132 25/106/133 118/108/134
f 128/104/49 264/133/131 118/108/134 26/104/50
f 8/16/16 88/135/15 265/136/135 127/56/56
f 88/135/15 14/85/14 110/88/82 265/136/135
f 265/136/135 110/88/82 21/92/86 116/137/136
f 127/56/56 265/136/135 116/137/136 22/57/57
f 16/32/32 106/99/93 266/138/137 130/139/132
f 106/99/93 6/25/25 99/82/77 266/138/137
f 266/138/137 99/82/77 24/84/79 123/140/138
f 130/139/132 266/138/137 123/140/138 25/106/133
f 3/233/70 86/234/283 307/235/284 87/236/71
f 86/234/283 70/237/285 227/238/286 307/235/284
f 307/235/284 227/238/286 82/239/287 114/240/288
f 87/236/71 307/235/284 114/240/288 13/241/60
f 70/242/285 214/243/289 308/244/290 227/245/286
f 214/243/289 69/9/9 228/102/95 308/244/290
f 308/244/290 228/102/95 81/10/10 226/246/291
f 227/245/286 308/244/290 226/246/291 82/247/287
f 5/43/43 92/248/292 309/249/293 93/250/44
f 92/248/292 74/251/294 229/252/295 309/249/293
f 309/249/293 229/252/295 80/253/296 113/254/297
f 93/250/44 309/249/293 113/254/297 15/255/45
f 74/256/294 218/257/298 310/258/299 229/259/295
f 218/257/298 73/27/27 230/98/92 310/258/299
f 310/258/299 230/98/92 79/28/28 224/260/300
f 229/259/295 310/258/299 224/260/300 80/261/296
f 1/262/90 211/263/301 311/264/302 83/265/88
f 211/263/301 67/266/303 231/267/304 311/264/302
f 311/264/302 231/267/304 78/268/305 102/269/306
f 83/265/88 311/264/302 102/269/306 9/270/75
f 67/266/303 212/271/307 312/272/308 231/267/304
f 212/271/307 68/69/36 232/72/69 312/272/308
f 312/272/308 232/72/69 77/1/1 222/273/309
f 231/267/304 312/272/308 222/273/309 78/268/305
f 7/64/64 89/274/310 313/275/311 90/65/65
f 89/274/310 72/276/312 233/277/313 313/275/311
f 313/275/311 233/277/313 76/278/314 101/279/315
f 90/65/65 313/275/311 101/279/315 11/41/41
f 72/280/312 216/281/316 314/282/317 233/283/313
f 216/281/316 71/18/18 234/67/67 314/282/317
f 314/282/317 234/67/67 75/19/19 220/284/318
f 233/283/313 314/282/317 220/284/318 76/285/314
f 15/255/45 113/254/297 315/286/319 105/287/89
f 113/254/297 80/253/296 235/288/320 315/286/319
f 315/286/319 235/288/320 67/289/303 211/290/301
f 105/287/89 315/286/319 211/290/301 1/291/90
f 80/253/296 224/260/300 316/292/321 235/288/320
f 224/260/300 79/28/28 236/31/31 316/292/321
f 316/292/321 236/31/31 68/36/36 212/293/307
f 235/288/320 316/292/321 212/293/307 67/289/303
f 11/41/41 101/279/315 317/294/322 97/42/42
f 101/279/315 76/278/314 237/295/323 317/294/322
f 317/294/322 237/295/323 74/251/294 92/248/292
f 97/42/42 317/294/322 92/248/292 5/43/43
f 76/285/314 220/284/318 318/296/324 237/297/323
f 220/284/318 75/19/19 238/22/22 318/296/324
f 318/296/324 238/22/22 73/27/27 218/257/298
f 237/297/323 318/296/324 218/257/298 74/256/294
f 13/241/60 114/240/288 319/298/325 103/299/61
f 114/240/288 82/239/287 239/300/326 319/298/325
f 319/298/325 239/300/326 72/276/312 89/274/310
f 103/299/61 319/298/325 89/274/310 7/64/64
f 82/247/287 226/246/291 320/301/327 239/300/326
f 226/246/291 81/10/10 240/13/13 320/301/327
f 320/301/327 240/13/13 71/18/18 216/281/316
f 239/300/326 320/301/327 216/281/316 72/280/312
f 9/270/75 102/269/306 321/302/328 95/303/73
f 102/269/306 78/268/305 241/304/329 321/302/328
f 321/302/328 241/304/329 70/237/285 86/234/283
f 95/303/73 321/302/328 86/234/283 3/233/70
f 78/305/305 222/306/309 322/307/330 241/308/329
f 222/306/309 77/1/1 242/4/4 322/307/330
f 322/307/330 242/4/4 69/9/9 214/243/289
f 241/308/329 322/307/330 214/243/289 70/242/285
usemtl Material.001
f 58/34/96 194/103/97 259/103/98 186/104/99
f 194/103/97 53/105/100 144/106/101 259/103/98
f 259/103/98 144/106/101 33/107/102 134/108/103
f 186/104/99 259/103/98 134/108/103 34/104/104
f 57/109/105 193/58/106 260/110/107 185/109/108
f 193/58/106 51/57/109 121/111/110 260/110/107
f 260/110/107 121/111/110 30/112/111 136/113/112
f 185/109/108 260/110/107 136/113/112 31/109/113
f 55/114/114 192/115/115 261/116/116 183/117/117
f 192/115/115 56/118/118 184/119/119 261/116/116
f 261/116/116 184/119/119 28/120/120 138/121/121
f 183/117/117 261/116/116 138/121/121 29/114/122
f 56/118/118 191/122/123 262/123/124 184/119/119
f 191/122/123 52/124/125 126/125/126 262/123/124
f 262/123/124 126/125/126 17/126/127 131/127/128
f 184/119/119 262/123/124 131/127/128 28/120/120
f 35/141/139 140/142/139 267/143/139 142/144/139
f 140/142/139 17/145/127 135/146/140 267/143/139
f 267/143/139 135/146/140 34/147/104 134/148/103
f 142/144/139 267/143/139 134/148/103 33/149/102
f 29/150/122 138/151/121 268/152/139 141/153/139
f 138/151/121 28/154/120 131/155/128 268/152/139
f 268/152/139 131/155/128 17/145/127 140/142/139
f 141/153/139 268/152/139 140/142/139 35/141/139
f 30/156/111 132/157/141 269/158/139 136/113/112
f 132/157/141 29/150/122 141/153/139 269/158/139
f 269/158/139 141/153/139 35/141/139 137/159/139
f 136/113/112 269/158/139 137/159/139 31/59/113
f 31/59/113 137/159/139 270/160/139 133/161/142
f 137/159/139 35/141/139 142/144/139 270/160/139
f 270/160/139 142/144/139 33/149/102 139/162/143
f 133/161/142 270/160/139 139/162/143 32/163/144
f 51/57/109 190/164/145 271/165/146 121/111/110
f 190/164/145 55/114/114 183/117/117 271/165/146
f 271/165/146 183/117/117 29/114/122 132/166/141
f 121/111/110 271/165/146 132/166/141 30/112/111
f 53/105/100 189/140/147 272/167/148 144/106/101
f 189/140/147 54/84/149 146/168/150 272/167/148
f 272/167/148 146/168/150 32/169/144 139/170/143
f 144/106/101 272/167/148 139/170/143 33/107/102
f 52/124/125 188/171/151 273/172/152 126/125/126
f 188/171/151 58/49/96 186/50/99 273/172/152
f 273/172/152 186/50/99 34/50/104 135/173/140
f 126/125/126 273/172/152 135/173/140 17/126/127
f 54/84/149 187/174/153 274/175/154 146/168/150
f 187/174/153 57/109/105 185/109/108 274/175/154
f 274/175/154 185/109/108 31/109/113 133/161/142
f 146/168/150 274/175/154 133/161/142 32/169/144
f 24/176/155 117/83/156 275/177/157 161/178/158
f 117/83/156 23/109/159 143/179/160 275/177/157
f 275/177/157 143/179/160 44/180/161 163/181/162
f 161/178/158 275/177/157 163/181/162 49/169/163
f 66/163/164 210/182/165 276/183/166 162/184/167
f 210/182/165 63/185/168 199/186/169 276/183/166
f 276/183/166 199/186/169 43/109/170 164/187/171
f 162/184/167 276/183/166 164/187/171 50/169/172
f 19/52/173 119/51/174 277/188/175 153/130/176
f 119/51/174 26/50/177 145/50/178 277/188/175
f 277/188/175 145/50/178 48/49/179 165/188/180
f 153/130/176 277/188/175 165/188/180 41/130/181
f 62/124/182 209/189/183 278/171/184 154/190/185
f 209/189/183 65/49/186 201/50/187 278/171/184
f 278/171/184 201/50/187 47/50/188 166/173/189
f 154/190/185 278/171/184 166/173/189 42/191/190
f 25/106/191 123/192/192 279/167/193 157/106/194
f 123/192/192 24/176/155 161/178/158 279/167/193
f 279/167/193 161/178/158 49/169/163 167/193/195
f 157/106/194 279/167/193 167/193/195 45/106/196
f 64/105/197 208/170/198 280/194/199 158/106/200
f 208/170/198 66/163/164 162/184/167 280/194/199
f 280/194/199 162/184/167 50/163/172 168/170/201
f 158/106/200 280/194/199 168/170/201 46/107/202
f 22/57/203 116/137/204 281/165/205 147/111/206
f 116/137/204 21/195/207 124/117/208 281/165/205
f 281/165/205 124/117/208 38/114/209 169/166/210
f 147/111/206 281/165/205 169/166/210 27/112/211
f 59/196/212 207/166/213 282/197/214 148/198/215
f 207/166/213 60/199/216 196/92/217 282/197/214
f 282/197/214 196/92/217 37/114/218 170/164/219
f 148/198/215 282/197/214 170/164/219 36/57/220
f 20/90/221 115/131/222 283/200/223 125/201/224
f 115/131/222 19/130/173 153/202/176 283/200/223
f 283/200/223 153/202/176 41/130/181 171/200/225
f 125/201/224 283/200/223 171/200/225 40/90/226
f 61/203/227 206/127/228 284/204/229 197/205/230
f 206/127/228 62/190/182 154/190/185 284/204/229
f 284/204/229 154/190/185 42/126/190 172/206/231
f 197/205/230 284/204/229 172/206/231 39/207/232
f 21/195/207 122/208/233 285/209/234 124/117/208
f 122/208/233 20/90/221 125/90/224 285/209/234
f 285/209/234 125/90/224 40/90/226 173/209/235
f 124/117/208 285/209/234 173/209/235 38/114/209
f 60/199/216 205/210/236 286/211/237 196/92/217
f 205/210/236 61/203/227 197/205/230 286/211/237
f 286/211/237 197/205/230 39/207/232 174/209/238
f 196/92/217 286/211/237 174/209/238 37/114/218
f 23/109/159 120/58/239 287/212/240 143/179/160
f 120/58/239 22/57/203 147/111/206 287/212/240
f 287/212/240 147/111/206 27/112/211 175/213/241
f 143/179/160 287/212/240 175/213/241 44/180/161
f 63/185/168 204/214/242 288/215/243 199/186/169
f 204/214/242 59/196/212 148/198/215 288/215/243
f 288/215/243 148/198/215 36/57/220 176/58/244
f 199/186/169 288/215/243 176/58/244 43/109/170
f 26/104/177 118/108/245 289/103/246 145/104/178
f 118/108/245 25/106/191 157/106/194 289/103/246
f 289/103/246 157/106/194 45/106/196 177/103/247
f 145/104/178 289/103/246 177/103/247 48/34/179
f 65/104/186 203/108/248 290/103/249 201/104/187
f 203/108/248 64/105/197 158/106/200 290/103/249
f 290/103/249 158/106/200 46/107/202 178/108/250
f 201/104/187 290/103/249 178/108/250 47/104/188
f 50/169/172 164/187/171 291/216/251 182/178/252
f 164/187/171 43/109/170 155/109/253 291/216/251
f 291/216/251 155/109/253 57/109/105 187/174/153
f 182/178/252 291/216/251 187/174/153 54/84/149
f 42/126/190 166/173/189 292/172/254 180/125/255
f 166/173/189 47/50/188 159/50/256 292/172/254
f 292/172/254 159/50/256 58/49/96 188/171/151
f 180/125/255 292/172/254 188/171/151 52/124/125
f 46/107/202 168/170/201 293/217/257 181/105/258
f 168/170/201 50/169/172 182/178/252 293/217/257
f 293/217/257 182/178/252 54/84/149 189/140/147
f 181/105/258 293/217/257 189/140/147 53/105/100
f 36/57/220 170/164/219 294/164/259 179/57/260
f 170/164/219 37/114/218 149/195/261 294/164/259
f 294/164/259 149/195/261 55/114/114 190/164/145
f 179/57/260 294/164/259 190/164/145 51/57/109
f 39/207/232 172/206/231 295/218/262 151/219/263
f 172/206/231 42/126/190 180/125/255 295/218/262
f 295/218/262 180/125/255 52/124/125 191/122/123
f 151/219/263 295/218/262 191/122/123 56/118/118
f 37/114/218 174/209/238 296/220/264 149/195/261
f 174/209/238 39/207/232 151/219/263 296/220/264
f 296/220/264 151/219/263 56/118/118 192/115/115
f 149/195/261 296/220/264 192/115/115 55/92/114
f 43/109/170 176/58/244 297/221/265 155/222/253
f 176/58/244 36/223/220 179/224/260 297/221/265
f 297/221/265 179/224/260 51/223/109 193/58/106
f 155/222/253 297/221/265 193/58/106 57/109/105
f 47/104/188 178/108/250 298/103/266 159/104/256
f 178/108/250 46/107/202 181/105/258 298/103/266
f 298/103/266 181/105/258 53/105/100 194/103/97
f 159/104/256 298/103/266 194/103/97 58/34/96
f 48/34/179 177/103/247 299/103/267 160/104/268
f 177/103/247 45/106/196 200/106/269 299/103/267
f 299/103/267 200/106/269 64/105/197 203/108/248
f 160/104/268 299/103/267 203/108/248 65/104/186
f 44/180/161 175/213/241 300/225/270 156/226/271
f 175/213/241 27/112/211 195/227/272 300/225/270
f 300/225/270 195/227/272 59/196/212 204/214/242
f 156/226/271 300/225/270 204/214/242 63/185/168
f 38/114/209 173/209/235 301/211/273 150/92/274
f 173/209/235 40/90/226 152/205/275 301/211/273
f 301/211/273 152/205/275 61/203/227 205/210/236
f 150/92/274 301/211/273 205/210/236 60/199/216
f 40/90/226 171/131/225 302/228/276 152/205/275
f 171/131/225 41/130/181 198/229/277 302/228/276
f 302/228/276 198/229/277 62/124/182 206/127/228
f 152/205/275 302/228/276 206/127/228 61/203/227
f 27/112/211 169/166/210 303/230/278 195/227/272
f 169/166/210 38/92/209 150/92/274 303/230/278
f 303/230/278 150/92/274 60/199/216 207/166/213
f 195/227/272 303/230/278 207/166/213 59/196/212
f 45/106/196 167/193/195 304/194/279 200/106/269
f 167/193/195 49/169/163 202/184/280 304/194/279
f 304/194/279 202/184/280 66/163/164 208/170/198
f 200/106/269 304/194/279 208/170/198 64/105/197
f 41/130/181 165/188/180 305/231/281 198/229/277
f 165/188/180 48/49/179 160/50/268 305/231/281
f 305/231/281 160/50/268 65/49/186 209/189/183
f 198/229/277 305/231/281 209/189/183 62/124/182
f 49/163/163 163/181/162 306/232/282 202/184/280
f 163/181/162 44/180/161 156/226/271 306/232/282
f 306/232/282 156/226/271 63/185/168 210/182/165
f 202/184/280 306/232/282 210/182/165 66/163/164
